<?xml version="1.0" standalone="no"?>
<!DOCTYPE svg PUBLIC "-//W3C//DTD SVG 20010904//EN"
 "http://www.w3.org/TR/2001/REC-SVG-20010904/DTD/svg10.dtd">
<svg version="1.0" xmlns="http://www.w3.org/2000/svg"
 width="579.000000pt" height="579.000000pt" viewBox="0 0 579.000000 579.000000"
 preserveAspectRatio="xMidYMid meet">
<metadata>
Created by potrace 1.14, written by Peter Selinger 2001-2017
</metadata>
<g transform="translate(0.000000,579.000000) scale(0.100000,-0.100000)"
fill="#000000" stroke="none">
<path d="M2680 5094 c-465 -40 -865 -190 -1218 -456 -57 -43 -109 -75 -114
-71 -6 3 -8 2 -5 -3 3 -6 -42 -57 -100 -114 -205 -202 -342 -390 -463 -635
-64 -130 -167 -411 -172 -470 l-2 -25 -188 0 -188 0 0 -45 0 -45 1010 0 c987
0 1010 0 1010 19 0 35 136 148 235 196 114 56 195 75 320 75 133 0 221 -20
334 -76 77 -38 108 -61 180 -132 l86 -87 990 0 990 0 3 48 c2 33 0 47 -8 42
-6 -3 -77 -3 -159 1 l-148 7 -17 61 c-105 385 -285 709 -551 995 -27 29 -48
58 -47 65 2 6 1 8 -3 4 -4 -4 -42 24 -85 62 -294 258 -600 422 -969 516 -75
19 -181 42 -236 50 -100 14 -400 25 -485 18z m-635 -514 c0 -9 -47 -40 -116
-76 -341 -179 -617 -444 -794 -764 -33 -59 -56 -89 -67 -90 -25 0 -22 22 8 81
164 324 488 640 841 819 99 50 128 57 128 30z m-17 -126 c-2 -8 -45 -38 -96
-67 -141 -80 -264 -171 -373 -275 -137 -131 -211 -224 -346 -439 -10 -16 -13
-16 -27 -3 -14 14 -12 22 24 83 152 260 422 522 693 671 94 52 132 61 125 30z
m67 -74 c0 -8 -39 -36 -87 -62 -285 -154 -510 -367 -673 -634 -23 -38 -48 -69
-56 -69 -66 0 95 241 290 435 128 127 249 217 398 297 98 53 128 61 128 33z
m-25 -120 c0 -13 -14 -27 -42 -41 -230 -118 -481 -362 -626 -611 -42 -74 -63
-91 -77 -68 -10 16 63 143 146 253 130 173 299 326 490 441 82 50 109 57 109
26z m86 -51 c9 -16 -9 -31 -111 -89 -220 -125 -417 -319 -549 -537 -35 -59
-57 -76 -71 -53 -15 24 116 217 231 339 125 132 227 212 394 308 78 45 94 50
106 32z m-57 -142 c13 -17 5 -25 -99 -93 -160 -105 -348 -314 -451 -500 -38
-69 -59 -88 -74 -64 -3 5 6 33 21 62 71 141 201 309 324 420 66 58 245 188
261 188 3 0 12 -6 18 -13z m109 -78 c2 -10 -27 -33 -87 -68 -161 -96 -328
-260 -430 -423 -36 -59 -57 -71 -68 -42 -9 24 100 177 202 283 93 97 184 169
289 233 64 38 89 43 94 17z m80 -82 c2 -10 -12 -24 -40 -38 -139 -71 -323
-230 -414 -358 -48 -68 -84 -91 -84 -53 0 50 195 265 324 357 80 56 187 116
201 111 6 -1 11 -10 13 -19z m0 -118 c2 -9 -27 -34 -75 -64 -93 -59 -226 -184
-296 -277 -48 -66 -69 -80 -83 -57 -15 25 141 211 250 299 77 61 176 122 191
117 5 -2 11 -10 13 -18z m50 -80 c2 -10 -25 -33 -75 -64 -87 -55 -243 -205
-288 -277 -21 -34 -37 -47 -57 -50 -15 -3 -28 -3 -28 0 0 2 21 36 47 75 63 95
179 210 283 280 85 57 112 65 118 36z m112 -54 c10 -12 7 -18 -20 -32 -110
-61 -215 -140 -287 -218 -52 -55 -88 -85 -102 -85 -11 0 -21 3 -21 6 0 15 106
137 158 181 72 62 111 89 187 130 70 38 69 38 85 18z m-3 -112 c2 -6 -31 -35
-74 -64 -43 -29 -103 -76 -133 -104 -48 -45 -110 -76 -110 -55 0 17 143 149
209 192 73 47 100 55 108 31z"/>
<path d="M3900 5026 c0 -2 7 -7 16 -10 8 -3 12 -2 9 4 -6 10 -25 14 -25 6z"/>
<path d="M3987 4979 c7 -7 15 -10 18 -7 3 3 -2 9 -12 12 -14 6 -15 5 -6 -5z"/>
<path d="M4120 4906 c0 -3 9 -10 20 -16 11 -6 20 -8 20 -6 0 3 -9 10 -20 16
-11 6 -20 8 -20 6z"/>
<path d="M4190 4856 c0 -2 7 -7 16 -10 8 -3 12 -2 9 4 -6 10 -25 14 -25 6z"/>
<path d="M1339 4779 l-24 -20 28 17 c15 9 27 18 27 20 0 8 -8 4 -31 -17z"/>
<path d="M4350 4736 c0 -2 7 -7 16 -10 8 -3 12 -2 9 4 -6 10 -25 14 -25 6z"/>
<path d="M1139 4613 c-13 -16 -12 -17 4 -4 9 7 17 15 17 17 0 8 -8 3 -21 -13z"/>
<path d="M4780 4296 c0 -2 8 -10 18 -17 15 -13 16 -12 3 4 -13 16 -21 21 -21
13z"/>
<path d="M4850 4200 c6 -11 13 -20 16 -20 2 0 0 9 -6 20 -6 11 -13 20 -16 20
-2 0 0 -9 6 -20z"/>
<path d="M789 3151 c-34 -35 -36 -54 -9 -81 22 -22 42 -25 71 -10 15 8 17 15
10 29 -23 42 39 92 69 56 20 -24 -9 -78 -60 -111 -40 -27 -41 -27 -153 -18
-61 5 -151 8 -199 8 -77 -1 -96 -5 -151 -33 -95 -46 -137 -116 -137 -226 1
-91 61 -178 150 -218 35 -16 68 -20 152 -21 100 -1 108 1 132 23 24 22 26 32
26 102 0 79 11 127 33 141 7 4 -39 8 -101 8 l-113 0 15 -22 c12 -17 16 -49 16
-130 0 -59 -4 -109 -8 -112 -16 -9 -71 27 -96 63 -30 43 -48 123 -39 177 13
84 63 147 148 186 44 20 62 22 155 19 254 -8 238 -10 271 27 69 77 10 172
-106 172 -38 0 -52 -5 -76 -29z"/>
<path d="M4400 3073 c-41 -14 -54 -78 -22 -106 58 -52 129 23 85 89 -10 15
-44 24 -63 17z"/>
<path d="M3618 3040 c-10 -35 -73 -97 -127 -125 -25 -13 -39 -24 -29 -25 14 0
17 -18 20 -144 3 -136 4 -146 27 -170 26 -28 62 -41 130 -49 l43 -5 -21 19
c-29 28 -32 47 -29 204 3 139 3 139 28 146 l25 7 -27 1 c-27 1 -27 1 -30 84
-2 53 -5 73 -10 57z"/>
<path d="M4252 3047 c-3 -30 -85 -109 -137 -133 -34 -16 -43 -23 -28 -23 21
-1 22 -5 25 -145 3 -127 5 -147 23 -166 39 -44 80 -54 242 -56 l153 -3 -18 27
c-14 21 -17 53 -19 177 -1 82 -2 156 -3 163 0 9 -30 12 -115 12 l-114 0 -4 83
c-1 45 -4 74 -5 64z m89 -192 c4 -16 7 -77 8 -135 1 -157 -23 -216 -69 -170
-18 18 -20 34 -20 181 l0 160 37 -3 c33 -3 39 -7 44 -33z"/>
<path d="M3209 3021 c-70 -22 -101 -63 -101 -137 0 -63 32 -120 105 -191 95
-92 124 -173 75 -207 -29 -20 -8 -20 40 0 52 21 101 72 108 111 13 67 -2 99
-92 193 -46 49 -89 101 -94 115 -17 46 -12 92 12 109 l22 16 -24 -1 c-14 0
-37 -4 -51 -8z"/>
<path d="M3331 3017 c31 -23 32 -55 5 -82 -25 -25 -25 -26 -6 -45 41 -41 110
-14 110 41 0 38 -26 66 -77 83 -31 10 -42 11 -32 3z"/>
<path d="M994 2891 c-17 -10 -40 -32 -52 -47 l-21 -29 -1 43 0 42 -92 0 c-63
0 -88 -3 -78 -10 12 -8 15 -38 15 -169 0 -138 -2 -161 -18 -178 -17 -20 -16
-20 93 -20 60 0 110 2 110 6 0 3 -7 15 -15 25 -11 15 -15 49 -15 131 0 108 1
112 30 145 25 31 29 32 30 14 0 -43 68 -72 98 -42 13 13 16 66 4 85 -14 22
-56 24 -88 4z"/>
<path d="M1212 2896 c-58 -19 -86 -39 -110 -78 -43 -71 -37 -167 15 -228 104
-124 335 -85 383 64 16 51 6 121 -24 167 -46 69 -172 105 -264 75z m102 -11
c20 -20 30 -90 29 -192 -2 -118 -27 -182 -66 -167 -59 22 -67 302 -11 359 19
19 29 19 48 0z"/>
<path d="M1664 2896 c-94 -29 -134 -85 -134 -189 0 -73 22 -115 78 -154 114
-76 297 -28 341 90 25 64 2 167 -45 209 -52 46 -165 66 -240 44z m112 -31 c34
-82 25 -288 -14 -327 -42 -43 -73 9 -80 134 -6 108 3 169 29 202 28 35 47 33
65 -9z"/>
<path d="M2481 2903 c-81 -16 -144 -102 -143 -198 1 -114 74 -185 191 -185 35
0 74 6 91 15 33 17 70 61 70 84 0 9 -8 2 -20 -16 -16 -28 -26 -33 -56 -33 -20
0 -48 9 -64 20 -29 21 -65 84 -55 99 3 5 1 12 -5 16 -11 7 -13 66 -4 114 4 17
19 45 34 61 27 29 27 30 7 29 -12 -1 -33 -4 -46 -6z"/>
<path d="M2574 2888 c9 -12 16 -36 16 -53 -1 -43 -36 -116 -60 -122 -35 -9
-22 -23 21 -23 48 0 104 24 124 54 17 24 20 79 5 107 -12 21 -49 42 -93 53
-28 7 -28 6 -13 -16z"/>
<path d="M3790 2895 c-37 -13 -70 -48 -70 -76 0 -10 10 -29 21 -40 17 -17 29
-20 56 -16 45 8 45 8 33 44 -19 54 22 115 55 82 8 -8 15 -41 16 -79 l3 -65
-65 -6 c-109 -9 -172 -68 -154 -142 8 -32 52 -73 89 -81 36 -9 92 10 111 36
l14 21 20 -24 c17 -21 28 -24 96 -26 76 -1 76 -1 58 19 -15 16 -19 43 -23 144
l-5 123 -35 36 c-54 56 -142 76 -220 50z m116 -229 c-2 -70 -16 -96 -51 -96
-29 0 -49 39 -40 78 8 38 48 82 73 82 18 0 20 -7 18 -64z"/>
<path d="M4679 2896 c-55 -15 -98 -46 -121 -89 -21 -40 -23 -135 -4 -182 31
-72 155 -127 244 -107 109 25 171 95 172 195 0 93 -47 154 -142 182 -61 18
-87 18 -149 1z m108 -28 c25 -46 25 -255 1 -310 -40 -91 -97 -4 -98 149 0 156
52 243 97 161z"/>
<path d="M5230 2895 c-19 -9 -42 -23 -52 -32 -17 -15 -18 -14 -18 10 l0 27
-91 0 c-82 0 -89 -1 -75 -16 23 -22 23 -300 1 -330 -8 -10 -15 -22 -15 -25 0
-4 50 -6 110 -6 108 0 110 0 93 20 -15 16 -19 42 -21 156 -3 130 -2 137 18
149 28 17 59 6 71 -25 5 -13 9 -72 9 -131 0 -88 -4 -113 -19 -138 l-19 -31
109 1 c60 0 109 4 109 7 0 4 -7 12 -15 19 -12 10 -15 38 -15 135 0 67 -5 135
-10 151 -22 59 -104 88 -170 59z"/>
<path d="M1942 2889 c11 -6 38 -74 74 -184 31 -96 61 -175 68 -176 6 -1 41 -2
79 -3 l67 -2 11 40 c42 162 82 294 95 314 14 21 13 22 -14 22 -25 0 -29 -3
-25 -24 5 -23 -66 -306 -77 -306 -3 0 -29 70 -59 156 -44 128 -52 157 -40 165
9 5 -26 9 -91 9 -76 -1 -100 -3 -88 -11z"/>
<path d="M3122 2630 c-15 -14 -22 -32 -22 -56 0 -46 14 -70 50 -89 33 -17 97
-22 69 -5 -9 5 -22 23 -29 40 -12 28 -11 34 10 62 17 23 20 35 13 47 -15 25
-65 25 -91 1z"/>
<path d="M3360 2303 c-8 -3 -35 -25 -60 -48 -144 -137 -371 -211 -572 -186
-151 18 -325 99 -418 194 l-35 36 -1022 1 -1023 0 0 -45 0 -45 200 0 c194 0
200 -1 200 -20 0 -30 86 -262 135 -365 67 -141 154 -284 238 -392 27 -35 46
-67 42 -73 -4 -6 -2 -9 3 -8 9 3 243 -235 239 -243 -1 -2 0 -3 2 -2 2 1 47
-33 100 -76 337 -272 700 -430 1136 -497 154 -23 472 -23 622 0 117 18 275 54
378 85 264 82 565 246 778 426 43 37 83 63 89 59 7 -4 8 -3 4 4 -4 7 11 28 35
49 118 107 335 394 426 564 57 104 116 244 157 369 l42 125 167 3 167 2 0 45
0 45 -1007 -1 c-555 0 -1015 -3 -1023 -6z m80 -99 c-8 -8 -47 -42 -88 -75 -79
-64 -159 -109 -179 -102 -27 10 -10 32 51 68 35 20 86 57 113 81 36 32 56 43
82 44 29 0 32 -2 21 -16z m100 -23 c-61 -79 -228 -211 -264 -211 -35 0 -13 37
44 75 33 22 91 70 127 108 52 51 74 67 96 67 l29 0 -32 -39z m128 -8 c-80
-113 -307 -307 -338 -288 -22 13 -8 33 48 70 66 44 199 170 238 226 21 30 33
39 56 39 l29 0 -33 -47z m116 5 c-45 -72 -120 -162 -189 -226 -77 -72 -181
-145 -195 -137 -22 14 -7 36 56 80 88 63 199 175 254 257 37 56 50 67 73 68
l27 0 -26 -42z m386 37 c0 -3 -19 -42 -41 -88 -60 -119 -152 -248 -248 -350
-94 -98 -271 -237 -302 -237 -35 0 -17 32 41 73 196 137 359 323 468 534 29
58 42 73 60 73 12 0 22 -2 22 -5z m194 -14 c8 -13 -53 -153 -109 -246 -75
-128 -166 -242 -277 -351 -116 -113 -188 -170 -302 -239 -69 -42 -79 -46 -93
-32 -17 17 -25 10 123 106 244 161 429 372 566 649 55 111 77 138 92 113z
m-356 -64 c-85 -167 -262 -361 -436 -478 -58 -39 -77 -47 -88 -38 -22 18 -17
25 39 60 161 99 333 278 428 447 37 65 48 75 66 60 10 -8 8 -19 -9 -51z m252
42 c0 -24 -76 -168 -139 -262 -121 -180 -294 -347 -478 -463 -92 -57 -129 -72
-143 -58 -14 14 -1 26 80 73 119 70 218 147 320 251 110 111 190 219 256 345
66 126 72 135 89 129 8 -4 15 -10 15 -15z m-370 -24 c0 -19 -92 -145 -156
-215 -103 -111 -314 -265 -353 -258 -26 5 -23 26 6 44 125 77 199 133 265 198
68 67 96 100 185 223 23 31 53 36 53 8z m525 -85 c9 -15 -88 -192 -165 -302
-80 -115 -286 -324 -400 -405 -47 -33 -131 -87 -187 -118 -86 -48 -105 -55
-118 -45 -21 18 -5 35 69 72 162 81 357 233 482 375 85 97 198 262 250 366 32
63 54 81 69 57z m200 -50 c8 -14 -94 -212 -163 -315 -145 -217 -330 -402 -546
-546 -131 -88 -289 -172 -314 -167 -38 7 -11 33 83 82 203 104 358 220 520
387 150 156 244 287 340 479 42 83 64 106 80 80z m-125 -27 c0 -9 -23 -58 -51
-107 -149 -262 -343 -472 -588 -637 -117 -79 -237 -143 -251 -134 -23 14 -7
36 42 61 173 88 331 207 485 368 113 118 240 292 297 409 20 39 34 57 47 57
11 0 19 -7 19 -17z"/>
<path d="M4899 1523 c-13 -16 -12 -17 4 -4 9 7 17 15 17 17 0 8 -8 3 -21 -13z"/>
<path d="M770 1475 c0 -5 10 -21 21 -35 13 -17 17 -18 10 -5 -17 33 -31 51
-31 40z"/>
<path d="M4799 1373 c-13 -16 -12 -17 4 -4 16 13 21 21 13 21 -2 0 -10 -8 -17
-17z"/>
<path d="M975 1200 c10 -11 20 -20 23 -20 3 0 -3 9 -13 20 -10 11 -20 20 -23
20 -3 0 3 -9 13 -20z"/>
<path d="M1560 716 c0 -3 9 -10 20 -16 11 -6 20 -8 20 -6 0 3 -9 10 -20 16
-11 6 -20 8 -20 6z"/>
<path d="M1790 590 c8 -5 20 -10 25 -10 6 0 3 5 -5 10 -8 5 -19 10 -25 10 -5
0 -3 -5 5 -10z"/>
<path d="M3835 590 c-3 -6 1 -7 9 -4 18 7 21 14 7 14 -6 0 -13 -4 -16 -10z"/>
<path d="M3515 470 c-13 -6 -15 -9 -5 -9 8 0 22 4 30 9 18 12 2 12 -25 0z"/>
<path d="M3238 403 c7 -3 16 -2 19 1 4 3 -2 6 -13 5 -11 0 -14 -3 -6 -6z"/>
<path d="M2458 393 c6 -2 18 -2 25 0 6 3 1 5 -13 5 -14 0 -19 -2 -12 -5z"/>
<path d="M2538 383 c6 -2 18 -2 25 0 6 3 1 5 -13 5 -14 0 -19 -2 -12 -5z"/>
<path d="M2658 373 c7 -3 16 -2 19 1 4 3 -2 6 -13 5 -11 0 -14 -3 -6 -6z"/>
</g>
</svg>
